<svg width="32" height="32" viewBox="0 0 32 32" fill="none" xmlns="http://www.w3.org/2000/svg">
<rect width="32" height="32" fill="white"/>
<path fill-rule="evenodd" clip-rule="evenodd" d="M12.5593 18.04C12.5729 18.04 12.5831 18.0373 12.5899 18.032C12.5967 18.0267 12.6001 18.0187 12.6001 18.008C12.6001 18 12.5967 17.9927 12.5899 17.986C12.5831 17.9793 12.5702 17.9747 12.5512 17.972L12.3963 17.936C12.361 17.928 12.3359 17.9113 12.3209 17.886C12.306 17.8607 12.2985 17.8267 12.2985 17.784V12.056C12.2985 12.04 12.2938 12.0267 12.2842 12.016C12.2747 12.0053 12.2605 12 12.2415 12C12.2251 12 12.2109 12.0013 12.1987 12.004C12.1864 12.0067 12.164 12.012 12.1314 12.02L10.5868 12.44C10.576 12.4427 10.5665 12.4467 10.5583 12.452C10.5502 12.4573 10.5461 12.4653 10.5461 12.476C10.5461 12.4867 10.5495 12.4953 10.5563 12.502C10.5631 12.5087 10.576 12.512 10.595 12.512H10.7539C10.7784 12.512 10.7961 12.5173 10.8069 12.528C10.8178 12.5387 10.8232 12.5547 10.8232 12.576V17.784C10.8232 17.8267 10.8164 17.8607 10.8028 17.886C10.7893 17.9113 10.7634 17.928 10.7254 17.936L10.5705 17.972C10.5515 17.9747 10.5386 17.9793 10.5318 17.986C10.525 17.9927 10.5216 18 10.5216 18.008C10.5216 18.0187 10.5257 18.0267 10.5339 18.032C10.542 18.0373 10.5515 18.04 10.5624 18.04H12.5593ZM4.09474 19.9998C4.7631 19.9998 5.27796 19.8798 5.63931 19.6398C6.00066 19.3998 6.18133 19.0878 6.18133 18.7038C6.18133 18.4931 6.13311 18.3185 6.03666 18.1798C5.94021 18.0411 5.77176 17.9298 5.53131 17.8458C5.29086 17.7618 4.956 17.6958 4.52673 17.6478C4.27134 17.6185 4.07708 17.5885 3.94395 17.5578C3.81082 17.5271 3.71981 17.4931 3.6709 17.4558C3.622 17.4185 3.59755 17.3731 3.59755 17.3198C3.59755 17.2665 3.61249 17.2238 3.64237 17.1918C3.65234 17.1811 3.66215 17.1722 3.67181 17.1651L3.67685 17.162L3.68969 17.1633C3.81301 17.177 3.94259 17.1838 4.07844 17.1838C4.43707 17.1838 4.75767 17.1198 5.04023 16.9918C5.32279 16.8638 5.54557 16.6911 5.70859 16.4738C5.8716 16.2565 5.95311 16.0131 5.95311 15.7438C5.95311 15.5091 5.88179 15.2878 5.73915 15.0798C5.59652 14.8718 5.38731 14.7024 5.11155 14.5718C5.00124 14.5195 4.88126 14.4777 4.75161 14.4463L4.72744 14.4409C4.75937 14.3578 4.79571 14.2928 4.83646 14.2458C4.8908 14.1831 4.96008 14.1518 5.0443 14.1518C5.12038 14.1518 5.18626 14.1791 5.24196 14.2338C5.29766 14.2884 5.35267 14.3518 5.40701 14.4238C5.46135 14.4958 5.52248 14.5591 5.5904 14.6138C5.65833 14.6684 5.74255 14.6958 5.84308 14.6958C6.01152 14.6958 6.14126 14.6471 6.23227 14.5498C6.32329 14.4524 6.3688 14.3171 6.3688 14.1438C6.3688 13.9464 6.3131 13.7864 6.20171 13.6638C6.09031 13.5411 5.92187 13.4798 5.69636 13.4798C5.43282 13.4798 5.21751 13.5704 5.05042 13.7518C4.89618 13.9192 4.7703 14.1343 4.67278 14.3971L4.66207 14.4269L4.61873 14.4185C4.45995 14.39 4.288 14.3758 4.10289 14.3758C3.69264 14.3758 3.33808 14.4411 3.03922 14.5718C2.74036 14.7024 2.5101 14.8791 2.34844 15.1018C2.18679 15.3244 2.10596 15.5758 2.10596 15.8558C2.10596 16.0931 2.18543 16.3125 2.34437 16.5138C2.50331 16.7151 2.73017 16.8771 3.02496 16.9998C3.16252 17.057 3.31237 17.1009 3.47449 17.1314L3.51587 17.1388C3.29946 17.1644 3.1202 17.2054 2.97809 17.2618C2.79334 17.3351 2.66021 17.4291 2.5787 17.5438C2.4972 17.6585 2.45644 17.7891 2.45644 17.9358C2.45644 18.0958 2.50127 18.2231 2.59093 18.3178C2.65817 18.3888 2.75598 18.4489 2.88436 18.4982L2.8869 18.4993L2.86963 18.5014C2.58962 18.5403 2.38193 18.603 2.24656 18.6898C2.08219 18.7951 2 18.9598 2 19.1838C2 19.3465 2.0686 19.4891 2.20581 19.6118C2.34301 19.7345 2.56512 19.8298 2.87213 19.8978C3.17914 19.9658 3.58668 19.9998 4.09474 19.9998ZM3.9602 16.9418C3.88141 16.8498 3.81009 16.7098 3.74625 16.5218C3.6824 16.3338 3.6301 16.1011 3.58935 15.8238C3.55131 15.5491 3.53704 15.3131 3.54655 15.1158C3.55606 14.9185 3.58527 14.7658 3.63417 14.6578C3.68308 14.5498 3.74693 14.4905 3.82572 14.4798C3.93711 14.4638 4.04986 14.5618 4.16397 14.7738C4.27808 14.9858 4.36502 15.2985 4.4248 15.7118C4.48457 16.1305 4.48932 16.4565 4.43906 16.6898C4.3888 16.9231 4.30661 17.0478 4.1925 17.0638C4.11643 17.0745 4.03899 17.0338 3.9602 16.9418ZM3.30201 19.5835C3.49627 19.7915 3.77407 19.8955 4.13542 19.8955C4.33104 19.8955 4.49338 19.8775 4.62243 19.8415C4.75148 19.8055 4.84793 19.7475 4.91178 19.6675C4.97563 19.5875 5.00755 19.4822 5.00755 19.3515C5.00755 19.2369 4.97359 19.1382 4.90567 19.0555C4.83774 18.9729 4.71684 18.9029 4.54296 18.8455C4.36908 18.7882 4.12455 18.7382 3.80939 18.6955C3.50844 18.6537 3.26189 18.6073 3.06975 18.5564L3.04475 18.5495L3.03996 18.5627C3.03562 18.5755 3.03127 18.5905 3.02692 18.6075C3.01605 18.6502 3.01062 18.6982 3.01062 18.7515C3.01062 19.0982 3.10775 19.3755 3.30201 19.5835ZM9.2991 18.12C9.55449 18.12 9.75622 18.0793 9.90429 17.998C10.0524 17.9167 10.1583 17.8253 10.2222 17.724C10.286 17.6227 10.3179 17.5413 10.3179 17.48C10.3179 17.4667 10.3159 17.458 10.3118 17.454C10.3078 17.45 10.3016 17.448 10.2935 17.448C10.2881 17.448 10.2833 17.45 10.2792 17.454C10.2751 17.458 10.2718 17.4667 10.269 17.48C10.2582 17.5627 10.233 17.6193 10.1936 17.65C10.1542 17.6807 10.1142 17.696 10.0734 17.696C10.0327 17.696 9.99802 17.68 9.9695 17.648C9.94097 17.616 9.9267 17.568 9.9267 17.504V15.528C9.9267 15.1547 9.79697 14.8693 9.53751 14.672C9.27804 14.4747 8.88749 14.376 8.36584 14.376C7.98004 14.376 7.6574 14.4267 7.39794 14.528C7.13847 14.6293 6.94353 14.7553 6.81312 14.906C6.68271 15.0567 6.6175 15.2053 6.6175 15.352C6.6175 15.5227 6.66573 15.6493 6.76218 15.732C6.85863 15.8147 6.98157 15.856 7.131 15.856C7.35379 15.856 7.53446 15.7887 7.67302 15.654C7.81159 15.5193 7.88087 15.3627 7.88087 15.184V14.76C7.88087 14.664 7.90804 14.588 7.96238 14.532C8.01671 14.476 8.09007 14.448 8.18245 14.448C8.2558 14.448 8.31761 14.476 8.36788 14.532C8.41814 14.588 8.44327 14.664 8.44327 14.76V16.24L8.43439 16.2371C8.37746 16.2205 8.30563 16.211 8.2189 16.2086L8.17429 16.208C7.53039 16.208 7.07191 16.2993 6.79886 16.482C6.52581 16.6647 6.38928 16.9173 6.38928 17.24C6.38928 17.496 6.49185 17.7067 6.69697 17.872C6.9021 18.0373 7.16089 18.12 7.47333 18.12C7.71785 18.12 7.94539 18.0687 8.15596 17.966C8.28553 17.9028 8.39582 17.8222 8.48681 17.7242L8.51748 17.6895L8.51787 17.6983C8.52617 17.7982 8.57598 17.8866 8.6673 17.9633L8.69594 17.986C8.81549 18.0753 9.01654 18.12 9.2991 18.12ZM7.95 17.5598C8.02336 17.6665 8.11709 17.7198 8.2312 17.7198L8.25807 17.7185C8.31196 17.7131 8.36685 17.6915 8.42274 17.6538L8.44312 17.639V16.3112L8.43089 16.3078C8.37384 16.2945 8.30728 16.2878 8.2312 16.2878C8.11166 16.2878 8.01657 16.3492 7.94593 16.4718C7.87529 16.5945 7.83997 16.7838 7.83997 17.0398C7.83997 17.2798 7.87664 17.4532 7.95 17.5598ZM14.921 18.032C14.9142 18.0373 14.904 18.04 14.8904 18.04H12.8935C12.8826 18.04 12.8731 18.0373 12.865 18.032C12.8568 18.0267 12.8527 18.0187 12.8527 18.008C12.8527 18 12.8561 17.9927 12.8629 17.986C12.8697 17.9793 12.8826 17.9747 12.9016 17.972L13.0565 17.936C13.0945 17.928 13.1203 17.9113 13.1339 17.886C13.1475 17.8607 13.1543 17.8267 13.1543 17.784V12.576C13.1543 12.5547 13.1489 12.5387 13.138 12.528C13.1271 12.5173 13.1095 12.512 13.085 12.512H12.9261C12.9071 12.512 12.8942 12.5087 12.8874 12.502C12.8806 12.4953 12.8772 12.4867 12.8772 12.476C12.8772 12.4653 12.8813 12.4573 12.8894 12.452C12.8976 12.4467 12.9071 12.4427 12.9179 12.44L14.4625 12.02C14.4951 12.012 14.5175 12.0067 14.5297 12.004C14.542 12.0013 14.5562 12 14.5725 12C14.5916 12 14.6058 12.0053 14.6153 12.016C14.6248 12.0267 14.6296 12.04 14.6296 12.056V17.784C14.6296 17.8267 14.6371 17.8607 14.652 17.886C14.667 17.9113 14.6921 17.928 14.7274 17.936L14.8823 17.972C14.9013 17.9747 14.9142 17.9793 14.921 17.986C14.9278 17.9927 14.9312 18 14.9312 18.008C14.9312 18.0187 14.9278 18.0267 14.921 18.032ZM17.0178 18.12C17.3574 18.12 17.6617 18.05 17.9307 17.91C18.1996 17.77 18.4122 17.5793 18.5685 17.338C18.7247 17.0967 18.8028 16.824 18.8028 16.52C18.8028 16.504 18.7994 16.4933 18.7926 16.488C18.7858 16.4827 18.7783 16.48 18.7702 16.48C18.7675 16.48 18.7627 16.482 18.7559 16.486C18.7491 16.49 18.7457 16.4987 18.7457 16.512C18.7457 16.76 18.6513 16.958 18.4625 17.106C18.2737 17.254 18.0285 17.328 17.7269 17.328C17.352 17.328 17.0517 17.202 16.8262 16.95C16.6665 16.7715 16.5633 16.5177 16.5168 16.1887L16.5119 16.152H18.705C18.7376 16.152 18.7628 16.146 18.7806 16.1341L18.7926 16.124C18.8103 16.1053 18.8191 16.0827 18.8191 16.056C18.8191 15.736 18.7484 15.4493 18.6072 15.196C18.4659 14.9427 18.2655 14.7427 18.0061 14.596C17.7466 14.4493 17.4389 14.376 17.083 14.376C16.6836 14.376 16.3365 14.4527 16.0417 14.606C15.7469 14.7593 15.5194 14.9793 15.3591 15.266C15.1988 15.5527 15.1187 15.896 15.1187 16.296C15.1187 16.6533 15.2002 16.9693 15.3632 17.244C15.5262 17.5187 15.7503 17.7333 16.0356 17.888C16.3209 18.0427 16.6483 18.12 17.0178 18.12ZM16.4879 15.7436C16.4879 15.8356 16.491 15.9234 16.4973 16.0071L16.5013 16.0556H17.2867C17.3356 16.0556 17.36 16.0263 17.36 15.9676C17.36 15.4316 17.3105 15.0469 17.2113 14.8136C17.1121 14.5803 17.0096 14.4636 16.9036 14.4636C16.8302 14.4636 16.7623 14.5016 16.6998 14.5776C16.6373 14.6536 16.5864 14.7849 16.547 14.9716C16.5076 15.1583 16.4879 15.4156 16.4879 15.7436ZM21.3213 18.04C21.3376 18.04 21.3498 18.0373 21.358 18.032C21.3661 18.0267 21.3702 18.0187 21.3702 18.008C21.3702 18 21.3675 17.9933 21.3621 17.988C21.3566 17.9827 21.3458 17.9787 21.3294 17.976L20.9301 17.896C20.8975 17.888 20.8716 17.8693 20.8526 17.84C20.8336 17.8107 20.8241 17.7787 20.8241 17.744V15.92C20.8241 15.7387 20.835 15.5907 20.8567 15.476C20.8784 15.3613 20.909 15.2773 20.9484 15.224C20.9878 15.1707 21.0333 15.144 21.0849 15.144C21.142 15.144 21.1814 15.1627 21.2031 15.2C21.2248 15.2373 21.2371 15.2853 21.2398 15.344L21.2479 15.496C21.2588 15.6907 21.3077 15.8393 21.3947 15.942C21.4816 16.0447 21.6215 16.096 21.8144 16.096C22.0236 16.096 22.1975 16.0267 22.3361 15.888C22.4746 15.7493 22.5439 15.536 22.5439 15.248C22.5439 14.9547 22.4855 14.736 22.3687 14.592C22.2518 14.448 22.082 14.376 21.8592 14.376C21.6772 14.376 21.502 14.4327 21.3335 14.546C21.1651 14.6593 21.0272 14.8273 20.9199 15.05C20.8815 15.1295 20.8501 15.2159 20.8254 15.3092L20.8241 15.3142V14.464C20.8241 14.4533 20.8223 14.4432 20.8187 14.4338L20.8119 14.42C20.8037 14.4067 20.7888 14.4 20.767 14.4C20.7507 14.4 20.7351 14.4013 20.7202 14.404C20.7052 14.4067 20.6855 14.4107 20.6611 14.416L19.1124 14.76C19.0961 14.7627 19.0839 14.768 19.0758 14.776C19.0676 14.784 19.0635 14.792 19.0635 14.8C19.0635 14.808 19.0676 14.8153 19.0758 14.822C19.0839 14.8287 19.0934 14.832 19.1043 14.832H19.2836C19.3081 14.832 19.325 14.8393 19.3346 14.854C19.3441 14.8687 19.3488 14.888 19.3488 14.912V17.808C19.3488 17.84 19.342 17.8673 19.3284 17.89C19.3149 17.9127 19.289 17.928 19.251 17.936L19.1043 17.968C19.088 17.9707 19.0744 17.976 19.0635 17.984C19.0527 17.992 19.0472 18 19.0472 18.008C19.0472 18.016 19.0513 18.0233 19.0595 18.03C19.0676 18.0367 19.0798 18.04 19.0961 18.04H21.3213ZM24.3268 13.9002C24.1679 14.0549 23.9635 14.1322 23.7135 14.1322C23.4663 14.1322 23.2652 14.0549 23.1103 13.9002C22.9555 13.7456 22.8781 13.5562 22.8781 13.3322C22.8781 13.1082 22.9555 12.9189 23.1103 12.7642C23.2652 12.6096 23.4663 12.5322 23.7135 12.5322C23.9635 12.5322 24.1679 12.6096 24.3268 12.7642C24.4858 12.9189 24.5653 13.1082 24.5653 13.3322C24.5653 13.5562 24.4858 13.7456 24.3268 13.9002ZM24.7284 18.0404C24.7419 18.0404 24.7521 18.0377 24.7589 18.0324C24.7657 18.027 24.7691 18.019 24.7691 18.0084C24.7691 18.0004 24.7657 17.993 24.7589 17.9864C24.7521 17.9797 24.7392 17.975 24.7202 17.9724L24.5653 17.9364C24.53 17.9284 24.5049 17.9117 24.49 17.8864C24.475 17.861 24.4675 17.827 24.4675 17.7844V14.4164C24.4675 14.4004 24.4628 14.387 24.4533 14.3764C24.4438 14.3657 24.4295 14.3604 24.4105 14.3604C24.3942 14.3604 24.3799 14.3617 24.3677 14.3644C24.3555 14.367 24.333 14.3724 24.3004 14.3804L22.7559 14.8004C22.745 14.803 22.7355 14.807 22.7274 14.8124C22.7192 14.8177 22.7151 14.8257 22.7151 14.8364C22.7151 14.847 22.7185 14.8557 22.7253 14.8624C22.7321 14.869 22.745 14.8724 22.764 14.8724H22.923C22.9474 14.8724 22.9651 14.8777 22.976 14.8884C22.9868 14.899 22.9923 14.915 22.9923 14.9364V17.7844C22.9923 17.827 22.9855 17.861 22.9719 17.8864C22.9583 17.9117 22.9325 17.9284 22.8944 17.9364L22.7396 17.9724C22.7206 17.975 22.7077 17.9797 22.7009 17.9864C22.6941 17.993 22.6907 18.0004 22.6907 18.0084C22.6907 18.019 22.6947 18.027 22.7029 18.0324C22.7111 18.0377 22.7206 18.0404 22.7314 18.0404H24.7284ZM28.439 17.998C28.2909 18.0793 28.0892 18.12 27.8338 18.12C27.5512 18.12 27.3502 18.0753 27.2306 17.986L27.202 17.9633C27.1107 17.8866 27.0608 17.7982 27.0525 17.6983L27.0521 17.6895L27.0215 17.7242C26.9305 17.8222 26.8202 17.9028 26.6906 17.966C26.4801 18.0687 26.2525 18.12 26.008 18.12C25.6956 18.12 25.4368 18.0373 25.2316 17.872C25.0265 17.7067 24.924 17.496 24.924 17.24C24.924 16.9173 25.0605 16.6647 25.3335 16.482C25.6066 16.2993 26.0651 16.208 26.709 16.208L26.7536 16.2086C26.8403 16.211 26.9121 16.2205 26.9691 16.2371L26.9779 16.24V14.76C26.9779 14.664 26.9528 14.588 26.9025 14.532C26.8523 14.476 26.7905 14.448 26.7171 14.448C26.6247 14.448 26.5514 14.476 26.497 14.532C26.4427 14.588 26.4155 14.664 26.4155 14.76V15.184C26.4155 15.3627 26.3463 15.5193 26.2077 15.654C26.0691 15.7887 25.8885 15.856 25.6657 15.856C25.5162 15.856 25.3933 15.8147 25.2968 15.732C25.2004 15.6493 25.1522 15.5227 25.1522 15.352C25.1522 15.2053 25.2174 15.0567 25.3478 14.906C25.4782 14.7553 25.6731 14.6293 25.9326 14.528C26.1921 14.4267 26.5147 14.376 26.9005 14.376C27.4222 14.376 27.8127 14.4747 28.0722 14.672C28.3316 14.8693 28.4614 15.1547 28.4614 15.528V17.504C28.4614 17.568 28.4756 17.616 28.5042 17.648C28.5327 17.68 28.5673 17.696 28.6081 17.696C28.6488 17.696 28.6889 17.6807 28.7283 17.65C28.7677 17.6193 28.7928 17.5627 28.8037 17.48C28.8064 17.4667 28.8098 17.458 28.8139 17.454C28.818 17.45 28.8227 17.448 28.8282 17.448C28.8363 17.448 28.8424 17.45 28.8465 17.454C28.8506 17.458 28.8526 17.4667 28.8526 17.48C28.8526 17.5413 28.8207 17.6227 28.7568 17.724C28.693 17.8253 28.587 17.9167 28.439 17.998ZM26.7661 17.7198C26.652 17.7198 26.5583 17.6665 26.4849 17.5598C26.4116 17.4532 26.3749 17.2798 26.3749 17.0398C26.3749 16.7838 26.4102 16.5945 26.4808 16.4718C26.5515 16.3492 26.6466 16.2878 26.7661 16.2878C26.8422 16.2878 26.9088 16.2945 26.9658 16.3078L26.978 16.3112V17.639L26.9577 17.6538C26.9018 17.6915 26.8469 17.7131 26.793 17.7185L26.7661 17.7198ZM30.3768 18.0058C30.2491 18.0818 30.1051 18.1198 29.9448 18.1198C29.7899 18.1198 29.6493 18.0818 29.523 18.0058C29.3966 17.9298 29.2968 17.8278 29.2234 17.6998C29.1501 17.5718 29.1134 17.4318 29.1134 17.2798C29.1134 17.1305 29.1501 16.9931 29.2234 16.8678C29.2968 16.7425 29.3966 16.6425 29.523 16.5678C29.6493 16.4931 29.7899 16.4558 29.9448 16.4558C30.1051 16.4558 30.2491 16.4931 30.3768 16.5678C30.5045 16.6425 30.6057 16.7425 30.6804 16.8678C30.7551 16.9931 30.7925 17.1305 30.7925 17.2798C30.7925 17.4318 30.7551 17.5718 30.6804 17.6998C30.6057 17.8278 30.5045 17.9298 30.3768 18.0058Z" fill="black"/>
</svg>
